<?xml version="1.0" encoding="utf-8"?>
<!-- Generator: Adobe Illustrator 16.0.0, SVG Export Plug-In . SVG Version: 6.00 Build 0)  -->
<!DOCTYPE svg PUBLIC "-//W3C//DTD SVG 1.1//EN" "http://www.w3.org/Graphics/SVG/1.1/DTD/svg11.dtd">
<svg version="1.1" id="레이어_1" xmlns="http://www.w3.org/2000/svg" xmlns:xlink="http://www.w3.org/1999/xlink" x="0px"
	 y="0px" width="432.06px" height="71.81px" viewBox="0 0 432.06 71.81" enable-background="new 0 0 432.06 71.81"
	 xml:space="preserve">
<circle fill="#183591" cx="36.413" cy="35.732" r="35.904"/>
<circle fill="#99D5EA" cx="36.951" cy="36.105" r="26.034"/>
<g>
	<path fill="#183591" d="M88.016,16.861h10.39l6.451,19.972c0.189,0.604,0.38,1.281,0.57,2.042l0.331,1.234
		c0.317,1.074,0.569,2.18,0.76,3.319h0.188c0.317-1.548,0.729-3.272,1.234-5.17c0.157-0.634,0.284-1.108,0.38-1.426l6.261-19.972
		h10.2v30.647c0,1.203-0.237,2.104-0.712,2.704c-0.602,0.729-1.471,1.09-2.608,1.09c-1.771,0-2.815-0.741-3.131-2.23
		c-0.095-0.439-0.144-0.964-0.144-1.563v-9.677c0-0.76,0-1.473,0-2.136l0.049-2.277c0.03-1.583,0.079-3.178,0.142-4.792l0.19-4.363
		h-0.332l-8.208,26.564h-7.306l-8.729-26.564h-0.331c0.063,0.663,0.109,1.298,0.143,1.897l0.188,4.648
		c0.096,2.625,0.144,4.965,0.144,7.022v9.962c0,1.2-0.206,2.055-0.617,2.561c-0.601,0.697-1.423,1.046-2.466,1.046
		c-1.677,0-2.657-0.713-2.942-2.136c-0.063-0.381-0.095-0.87-0.095-1.471V16.861z"/>
	<path fill="#183591" d="M131.755,16.861h20.922v5.694h-14.042v7.968h9.677c1.454,0,2.498,0.462,3.131,1.379
		c0.284,0.408,0.428,0.886,0.428,1.423c0,1.392-0.682,2.277-2.042,2.657c-0.506,0.125-1.011,0.188-1.517,0.188h-9.677v8.967h10.768
		c1.454,0,2.499,0.474,3.13,1.423c0.286,0.411,0.428,0.885,0.428,1.422c0,1.392-0.681,2.277-2.039,2.657
		c-0.474,0.126-0.981,0.188-1.519,0.188h-17.647V16.861z"/>
	<path fill="#183591" d="M173.405,17.241c-0.38-0.063-0.838-0.109-1.375-0.142c-1.518-0.156-3.101-0.238-4.743-0.238h-8.872v30.98
		c0,1.011,0.308,1.818,0.927,2.418c0.615,0.6,1.444,0.901,2.49,0.901c0.188,0,0.408-0.016,0.663-0.047
		c1.803-0.286,2.704-1.376,2.704-3.272V22.223h1.896c1.897,0,3.272,0.078,4.127,0.238c2.595,0.443,4.532,1.59,5.813,3.439
		c1.278,1.85,1.919,4.514,1.919,7.993c0,4.049-0.767,7.045-2.299,8.989c-1.536,1.946-3.804,2.917-6.81,2.917
		c-0.195,0-0.372,0.016-0.553,0.028c-0.677,1.555-1.499,2.965-2.336,4.362c0.62,0.578,1.638,0.877,3.081,0.877
		c1.042,0,1.991-0.063,2.845-0.192c4.743-0.662,8.286-2.704,10.626-6.117c1.994-2.846,2.989-6.515,2.989-11.006
		C186.499,24.072,182.134,18.57,173.405,17.241z"/>
	<path fill="#183591" d="M199.119,16.861v30.553c0,2.595-1.156,3.889-3.462,3.889c-2.276,0-3.417-1.294-3.417-3.889V16.861H199.119z
		"/>
	<path fill="#183591" d="M209.744,16.861l5.979,19.595c0.314,0.98,0.647,2.293,0.996,3.936l0.38,1.85
		c0.125,0.541,0.22,0.968,0.282,1.282h0.191c0.506-2.688,1.043-5.045,1.611-7.067l5.361-19.595h7.497l-9.727,31.121
		c-0.694,2.215-2.34,3.32-4.935,3.32c-2.56,0-4.205-1.105-4.934-3.32l-10.34-31.121H209.744z"/>
	<path fill="#183591" d="M241.908,16.861v30.553c0,2.595-1.156,3.889-3.461,3.889c-2.277,0-3.418-1.294-3.418-3.889V16.861H241.908z
		"/>
	<path fill="#183591" d="M248.928,16.861h20.923v5.694h-14.042v7.968h9.677c1.454,0,2.497,0.462,3.131,1.379
		c0.286,0.408,0.428,0.886,0.428,1.423c0,1.392-0.682,2.277-2.042,2.657c-0.505,0.125-1.011,0.188-1.517,0.188h-9.677v8.967h10.767
		c1.454,0,2.5,0.474,3.131,1.423c0.286,0.411,0.428,0.885,0.428,1.422c0,1.392-0.679,2.277-2.038,2.657
		c-0.475,0.126-0.98,0.188-1.521,0.188h-17.647V16.861z"/>
	<path fill="#183591" d="M279.622,16.861l4.412,17.647c0.537,2.12,1.012,4.351,1.423,6.69l0.333,1.943h0.094
		c0.095-0.6,0.208-1.294,0.333-2.085l0.428-2.374c0.157-0.949,0.427-2.34,0.807-4.175l4.127-17.647h7.494l4.601,17.647
		c0.443,1.74,0.934,4.175,1.474,7.306c0.094,0.475,0.157,0.92,0.188,1.328h0.142c0.505-3.131,1.093-6.008,1.755-8.634l4.46-17.647
		h7.07l-8.54,31.169c-0.635,2.276-2.214,3.417-4.745,3.417c-2.592,0-4.19-1.156-4.79-3.465l-3.605-13.474
		c-0.095-0.408-0.191-0.835-0.286-1.281l-0.329-1.423c-0.224-0.854-0.428-1.85-0.619-2.986l-0.282-1.329
		c-0.066-0.38-0.113-0.729-0.145-1.046h-0.142c-0.255,1.9-0.682,4.162-1.281,6.784c-0.126,0.54-0.22,0.952-0.286,1.234l-3.556,13.38
		c-0.603,2.309-2.183,3.461-4.745,3.461c-1.234,0-2.236-0.251-3.012-0.757c-0.776-0.506-1.338-1.376-1.684-2.61l-8.634-31.074
		H279.622z"/>
	<path fill="#183591" d="M339.823,23.884c-2.34-1.454-4.742-2.183-7.211-2.183c-3.543,0-5.312,1.108-5.312,3.32
		c0,1.077,0.506,2.025,1.518,2.848c0.349,0.252,1.344,0.823,2.989,1.706l2.324,1.234c2.117,1.14,3.587,1.994,4.41,2.563
		c1.583,1.105,2.713,2.309,3.392,3.605c0.682,1.297,1.021,2.799,1.021,4.507c0,3.32-1.344,5.867-4.032,7.639
		c-2.309,1.548-5.186,2.324-8.634,2.324c-2.783,0-5.314-0.428-7.592-1.281c-1.61-0.601-2.418-1.631-2.418-3.085
		c0-1.834,1.043-2.751,3.131-2.751c0.601,0,1.423,0.188,2.466,0.568c1.552,0.54,3.147,0.808,4.793,0.808
		c3.574,0,5.361-1.219,5.361-3.653c0-1.202-0.682-2.229-2.042-3.084c-0.788-0.506-2.276-1.344-4.456-2.513l-1.614-0.854
		c-2.626-1.36-4.46-2.642-5.503-3.845c-1.489-1.643-2.229-3.684-2.229-6.118c0-3.288,1.313-5.726,3.938-7.306
		c2.212-1.359,5.029-2.041,8.442-2.041c3.86,0,7.228,0.775,10.104,2.324L339.823,23.884z"/>
	<path fill="#183591" d="M401.507,16.861v5.694h-13.188v8.396h9.727c2.245,0,3.367,0.951,3.367,2.848
		c0,1.897-1.122,2.846-3.367,2.846h-9.727v10.77c0,2.595-1.156,3.889-3.461,3.889c-2.277,0-3.418-1.294-3.418-3.889V16.861H401.507z
		"/>
	<path fill="#183591" d="M432.565,16.861v5.694h-8.967v24.858c0,2.595-1.156,3.889-3.464,3.889c-2.309,0-3.461-1.294-3.461-3.889
		V22.556h-8.967v-5.694H432.565z"/>
</g>
<g>
	<path fill="#183591" d="M372.442,47.863c2.515-3.084,3.772-7.487,3.772-13.213c0-5.659-1.266-10.041-3.796-13.141
		c-2.529-3.097-6.184-4.648-10.959-4.648c-4.712,0-8.39,1.583-11.029,4.746c-2.641,3.162-3.962,7.509-3.962,13.043
		c0,5.568,1.313,9.931,3.938,13.094c2.624,3.163,6.31,4.746,11.053,4.746c2.501,0,4.686-0.431,6.566-1.263
		c-1.339-1.603-2.586-3.248-3.596-5.025c-0.844,0.411-1.792,0.641-2.875,0.641c-2.499,0-4.421-1.067-5.766-3.2
		c-1.344-2.136-2.016-5.132-2.016-8.992c0-1.991,0.158-3.747,0.474-5.264c0.98-4.617,3.323-6.929,7.023-6.929
		c2.465,0,4.355,1.068,5.669,3.204c1.311,2.136,1.969,5.132,1.969,8.988c0,1.932-0.16,3.637-0.475,5.126
		c-0.259,1.325-0.633,2.452-1.113,3.401c0.495,2.553,1.469,4.799,2.641,6.947C370.882,49.493,371.717,48.752,372.442,47.863z"/>
</g>
<circle fill="#FFF100" cx="30.641" cy="30.683" r="20.612"/>
<circle fill="#E71F19" cx="22.686" cy="22.549" r="11.769"/>
</svg>
